# xmcd
#
# Track frame offsets: 
#        150
#        19528
#        39960
#        61868
#        85882
#        107804
#        140524
#
# Disc length: 2425 seconds
#
# Revision: 0
# Processed by: cddbd v1.5.2PL0 Copyright (c) Steve Scherf et al.
# Submitted via: ExactAudioCopy v1.0b1
#
DISCID=4f097707
DTITLE=The Lyman Family with Lisa Kindred - American Avatar
DYEAR=1969
DGENRE=Blues
TTITLE0=California Water -- Take One
TTITLE1=James Alley Blues
TTITLE2=Good Shephard
TTITLE3=Jesus Met The Woman At The Well
TTITLE4=It Takes A Lot To Laugh, It Takes A Man To Cry
TTITLE5=My Love Comes Rolling Down
TTITLE6=California Water -- Take Two
EXTD=
EXTT0=
EXTT1=
EXTT2=
EXTT3=
EXTT4=
EXTT5=
EXTT6=
PLAYORDER=
